<?xml version="1.0" encoding="UTF-8"?>
<svg xmlns="http://www.w3.org/2000/svg" viewBox="120 90 680 480" role="img" aria-hidden="true">
  <defs>
    <style>
      .cls-2 { fill: #112248; }
      .cls-3 { fill: #14234a; }
      .cls-4 { fill: #121e43; }
      .cls-5 { fill: #f7fbfe; }
      .cls-7 { fill: #f7bf2d; }
    </style>
  </defs>
  <g>
    <path class="cls-7" d="M279.16,474.33c-.04-.1-.14-.3-.13-.42.07.12.11.27.13.42Z"/>
    <path class="cls-4" d="M277.28,466.46c.16.22.38,0,.15-.16l.26.28c.32.1.22.61-.13.46.04-.33-.08-.46-.28-.58Z"/>
    <g>
      <path class="cls-7" d="M431.95,252.14c-4.77-32.38,1.15-63.22,23.75-87.25l17.16-16.41c8.98-8.59,17.95-16.91,23.18-28.3,3.93-8.56,5.76-17.43,4.44-26.62-1.82-12.7-8.31-23.83-19.95-29.6-21.3-10.56-47.23-5.26-62.46,13.01-8.19,9.83-12.74,21.47-13.65,34.21-3.02,1.46-6.04.47-9.07.17l-21.74-2.12-13.72-1.56c-3.52-.4-7.21.45-10.89-1.13.73-18.57,6.24-36.33,15.5-52.55,10.23-17.91,24.92-31.53,42.98-41.4,14.01-7.65,29.26-11.08,45.16-12.33,8.6-.68,16.34-.01,25.13,1.08,28.33,3.51,54.34,18.16,71.15,41.44,9.61,13.31,14.93,28.62,16.82,45.03,2.5,21.62-3.47,43.7-15.45,61.61l-12.65,15.86-9.49,9.54-14.96,13.28-20.68,20.02c-16.18,17.43-20.58,40.87-17.56,64.46l-40-.02-3.01-20.45Z"/>
      <circle class="cls-7" cx="456.38" cy="319.54" r="25.75"/>
    </g>
    <g>
      <path class="cls-2" d="M226.71,228.53l-49.82,201.35c123.48-1.11,217.16,33.18,265.94,120.23l14.83.27-3-66.06c-20.48-146.56-128.68-235.11-227.94-255.78Z"/>
      <path class="cls-2" d="M688.64,228.53l49.82,201.35c-123.48-1.11-217.16,33.18-265.94,120.23l-14.86.27,3.04-66.06c20.48-146.56,128.68-235.11,227.94-255.78Z"/>
      <path class="cls-3" d="M441.57,550.11c-73.92-94.02-173.35-113.82-279.68-109.78l49.25-190.37-17.86-6.38c-11.5,29.94-24.26,38.36-37.51,38.53l-58.95,237.83c143.23-18.08,260.13-15.27,320.89,34.83l.77,10.72c28.33,10.97,53.88,12.14,78.98-.89l1.53-10.21c57.45-43.52,165.98-56.71,319.74-33.68l-59.46-238.85c-17.95-1.3-29.85-14.76-36.75-38.28l-18.37,5.61,48.99,192.15c-153.31-8.32-226.22,43.32-280.63,108.76h-30.95Z"/>
    </g>
    <path class="cls-5" d="M460.98,484.83c9.88-119.98,105.66-224.6,228.15-257.52l-10.21-2.04c-92.17,23.8-167.91,84.01-215.38,203.27-.02.05-.1.03-.09-.02l6.28-32.6-1.66,6.25-6.83,26.86-2,.19-.74-26.79-.42,5.3-1.94,22.2h-.89l-6.51-26.09-2.42-9.06,7.1,35.7-1.96.21c-27.82-82.94-91.21-166.95-209.42-206.7l-15.63,3.81c101.03,25.09,213.88,110.76,228.45,257.5l6.11-.47Z"/>
    <g>
      <path class="cls-7" d="M357.27,427.5c41.72,6.71,77.17,24.61,97.38,56.82l-.51-3.52c-17.83-33.26-54.64-48.98-97.38-56.11l.51,2.81Z"/>
      <path class="cls-7" d="M452.51,470.92l.69,4.1c-25.69-46.53-73.08-71.62-137.02-76.7v-.77c59.77,2.28,108.02,24.18,136.32,73.37Z"/>
      <path class="cls-7" d="M449.87,457.8l1.07,4.98c-32.88-54.67-80.79-92.41-150.44-106.86v-.89c63.98,11.75,118.66,40.86,149.38,102.78Z"/>
      <path class="cls-7" d="M444.83,437.66l1.81,6.9c-27.91-57.03-73.25-100.53-132.75-131.55l1.02-1.36c59.17,28.53,102.65,69.97,129.92,126.01Z"/>
    </g>
    <g>
      <path class="cls-7" d="M557.68,428.69c-41.72,6.71-77.17,24.61-97.38,56.82l.51-3.52c17.83-33.26,54.64-48.98,97.38-56.11l-.51,2.81Z"/>
      <path class="cls-7" d="M462.44,472.11l-.69,4.1c25.69-46.53,73.08-71.62,137.02-76.7v-.77c-59.77,2.28-108.02,24.18-136.32,73.37Z"/>
      <path class="cls-7" d="M465.08,458.99l-1.07,4.98c32.88-54.67,80.79-92.41,150.44-106.86v-.89c-63.98,11.75-118.66,40.86-149.38,102.78Z"/>
      <path class="cls-7" d="M470.13,438.84l-1.81,6.9c27.91-57.03,73.25-100.53,132.75-131.55l-1.02-1.36c-59.17,28.53-102.65,69.97-129.92,126.01Z"/>
    </g>
  </g>
</svg>
